<?xml version="1.0" encoding="utf-8"?>
<svg width="273" height="83.5" viewBox="0 0 273 83.5" fill="none" xmlns="http://www.w3.org/2000/svg">
  <g>
    <path d="M0.760742 11.2905L11.2905 38L15.3911 38L26.0322 11.2905L20.5215 11.2905L13.4014 30.036L6.3457 11.2905L0.760742 11.2905ZM29.1007 37.1465Q31.3458 38.3804 34.2404 38.3804Q36.4762 38.3804 38.3966 37.5825Q40.317 36.7847 41.6437 35.2261L38.7213 32.3037Q37.8864 33.25 36.7453 33.7231Q35.6041 34.1963 34.2033 34.1963Q32.6447 34.1963 31.4664 33.5376Q30.2882 32.8696 29.6574 31.6357Q29.4095 31.1438 29.2605 30.5826L42.6735 30.5503Q42.8219 29.9102 42.8776 29.3999Q42.9425 28.8804 42.9425 28.3887Q42.9425 25.7632 41.7829 23.6943Q40.6232 21.6255 38.5914 20.4287Q36.5597 19.2319 33.8971 19.2319Q31.1974 19.2319 28.9894 20.5029Q26.7907 21.7739 25.5104 23.9263Q24.2394 26.0693 24.2394 28.8062Q24.2394 31.5801 25.5475 33.751Q26.8649 35.9126 29.1007 37.1465ZM29.2619 26.8615Q29.3993 26.3455 29.6203 25.8931Q30.214 24.6963 31.3087 24.0376Q32.4127 23.3696 33.8971 23.3696Q35.298 23.3696 36.2628 23.9634Q37.237 24.5479 37.7472 25.6519Q37.9971 26.1829 38.144 26.8363L29.2619 26.8615ZM50.9947 27.8506L50.9947 38L46.022 38L46.022 19.6494L50.9947 19.6494L50.9947 21.2714Q51.0132 21.2489 51.0318 21.2266Q52.6646 19.269 55.7447 19.269Q57.0806 19.269 58.1382 19.7051Q59.2051 20.1411 60.0772 21.1245L56.96 24.6963Q56.5425 24.2417 55.9488 24.019Q55.3643 23.7871 54.6035 23.7871Q53.0078 23.7871 51.9966 24.7983Q50.9947 25.8003 50.9947 27.8506ZM64.6724 24.019L64.6724 38L69.6544 38L69.6544 24.019L73.9498 24.019L73.9498 19.6494L69.6544 19.6494L69.6544 12.0049L64.6724 12.0049L64.6724 19.6494L60.3863 19.6494L60.3863 24.019L64.6724 24.019ZM79.9447 37.1465Q82.1898 38.3804 85.0844 38.3804Q87.3202 38.3804 89.2406 37.5825Q91.161 36.7847 92.4877 35.2261L89.5653 32.3037Q88.7304 33.25 87.5892 33.7231Q86.4481 34.1963 85.0473 34.1963Q83.4887 34.1963 82.3104 33.5376Q81.1322 32.8696 80.5014 31.6357Q80.2535 31.1438 80.1045 30.5826L93.5175 30.5503Q93.6659 29.9102 93.7216 29.3999Q93.7865 28.8804 93.7865 28.3887Q93.7865 25.7632 92.6268 23.6943Q91.4672 21.6255 89.4354 20.4287Q87.4037 19.2319 84.7411 19.2319Q82.0414 19.2319 79.8334 20.5029Q77.6347 21.7739 76.3544 23.9263Q75.0834 26.0693 75.0834 28.8062Q75.0834 31.5801 76.3915 33.751Q77.7089 35.9126 79.9447 37.1465ZM80.1059 26.8615Q80.2433 26.3455 80.4642 25.8931Q81.058 24.6963 82.1527 24.0376Q83.2567 23.3696 84.7411 23.3696Q86.142 23.3696 87.1068 23.9634Q88.0809 24.5479 88.5912 25.6519Q88.8411 26.1829 88.988 26.8363L80.1059 26.8615ZM104.013 32.0885L107.848 38L113.693 38L107.153 28.5635L113.35 19.6494L107.765 19.6494L104.292 25.0237L100.742 19.6494L94.8505 19.6494L101.17 28.6192L94.4701 38L100.092 38L104.013 32.0885Z" fill="#1A4B84" transform="translate(118 20)" />
    <g transform="translate(34 16)">
      <path d="M10.6853 0L10.6853 0C16.5874 0 21.3705 4.78316 21.3705 10.6853L21.3705 38.1755C21.3705 44.0777 16.5874 48.8608 10.6853 48.8608L10.6853 48.8608C4.78315 48.8608 -9.53674e-07 44.0777 -9.53674e-07 38.1755L0 10.6853C0 4.78316 4.78316 0 10.6853 0L10.6853 0Z" fill="#1A4B84" transform="matrix(0.866 -0.5 0.5 0.866 0 10.685)" />
      <path d="M10.6853 0L10.6853 0C16.5874 0 21.3705 4.78315 21.3705 10.6853L21.3705 26.8231C21.3705 32.7252 16.5874 37.5084 10.6853 37.5083L10.6853 37.5083C4.78316 37.5083 1.90735e-06 32.7252 3.8147e-06 26.8231L0 10.6853C-1.90735e-06 4.78315 4.78315 0 10.6853 0L10.6853 0Z" fill="#00B4D8" fill-opacity="0.498" transform="matrix(0.866 -0.5 0.5 0.866 14.425 14.425)" />
      <path d="M0 10.6853C0 4.78395 4.78395 0 10.6853 0C16.5866 0 21.3705 4.78395 21.3705 10.6853C21.3705 16.5866 16.5866 21.3705 10.6853 21.3705C4.78395 21.3705 0 16.5866 0 10.6853Z" fill="#FFC857" fill-rule="evenodd" transform="translate(40.604 3.74)" />
    </g>
  </g>
</svg>